<?xml version="1.0" encoding="UTF-8"?>
<svg version="1.1" xmlns="http://www.w3.org/2000/svg" width="128" height="128">
<path d="M0 0 C2.50160818 1.87620613 3.61945652 3.23891303 5 6 C5.36342497 9.85230471 5.33663163 12.3114353 3.625 15.8125 C-0.18389724 18.98658103 -4.17166953 19.38263714 -9 20 C-8.66226563 20.4846875 -8.32453125 20.969375 -7.9765625 21.46875 C-3.03355512 28.89754721 -1.28610005 35.100139 -2.32421875 44.04296875 C-3.55669602 49.43594734 -5.87521035 54.44088067 -9 59 C-11.19921875 60.33984375 -11.19921875 60.33984375 -13 61 C-13 61.66 -13 62.32 -13 63 C-14.98 63.495 -14.98 63.495 -17 64 C-17 64.66 -17 65.32 -17 66 C-25.05768571 70.30992491 -33.55694938 71.33169435 -42.5703125 69.46875 C-47.24754257 68.01008842 -51.16297741 66.04994103 -55 63 C-55 62.34 -55 61.68 -55 61 C-55.99 60.67 -56.98 60.34 -58 60 C-59.5703125 58.07421875 -59.5703125 58.07421875 -61.125 55.6875 C-61.64320312 54.90761719 -62.16140625 54.12773438 -62.6953125 53.32421875 C-65.25924725 48.7567302 -65.21192905 44.34135534 -65.25 39.1875 C-65.270625 38.50107422 -65.29125 37.81464844 -65.3125 37.10742188 C-65.37567329 28.76065044 -61.63509825 21.98729189 -56 16 C-53.13531862 13.74704745 -50.16340363 11.80601589 -47 10 C-46.42765625 9.62617187 -45.8553125 9.25234375 -45.265625 8.8671875 C-38.464999 6.26418927 -28.31754995 6.69124176 -21.59375 9.34375 C-19.24760901 10.77300831 -17.09752693 12.2292235 -15 14 C-14.98582031 13.40832031 -14.97164062 12.81664062 -14.95703125 12.20703125 C-14.70470251 8.02655783 -14.32935381 5.50432302 -12 1.9375 C-7.96181419 -0.670495 -4.68820555 -0.97269311 0 0 Z M-18 16 C-17 18 -17 18 -17 18 Z M-42 30 C-43.04289755 32.06890419 -43.04289755 32.06890419 -43 34 C-42.154375 33.34 -41.30875 32.68 -40.4375 32 C-36.56563053 29.74727595 -34.39721203 29.64822304 -30 30 C-29.67 29.34 -29.34 28.68 -29 28 C-34.2414697 26.59375203 -37.2946882 27.32443054 -42 30 Z M-44 34 C-45.41564834 36.83129669 -45.24224495 38.85081562 -45 42 C-43.60075055 45.30101131 -43.60075055 45.30101131 -42 48 C-41.01 47.67 -40.02 47.34 -39 47 C-39.66 46.154375 -40.32 45.30875 -41 44.4375 C-43.25272405 40.56563053 -43.35177696 38.39721203 -43 34 C-43.33 34 -43.66 34 -44 34 Z M-24 34 C-25.23488688 36.04834083 -25.23488688 36.04834083 -24.8125 38.8125 C-25 42 -25 42 -26.375 44.8125 C-30.23775346 48.03146122 -34.10156505 47.89717026 -39 48 C-37.23396151 50.1911025 -37.23396151 50.1911025 -35.01171875 50.1875 C-30.58431448 49.83033125 -28.47009987 49.383755 -24.9375 46.5 C-22.18636154 42.6371001 -22.54518864 38.54811362 -23 34 C-23.33 34 -23.66 34 -24 34 Z " fill="#71A33F" transform="translate(97,26)"/>
<path d="M0 0 C2.50160818 1.87620613 3.61945652 3.23891303 5 6 C5.36342497 9.85230471 5.33663163 12.3114353 3.625 15.8125 C-0.18389724 18.98658103 -4.17166953 19.38263714 -9 20 C-8.65066406 20.55429687 -8.30132812 21.10859375 -7.94140625 21.6796875 C-7.25884766 22.76636719 -7.25884766 22.76636719 -6.5625 23.875 C-6.11003906 24.59429687 -5.65757813 25.31359375 -5.19140625 26.0546875 C-2.85376762 29.87155319 -2.83651695 32.50421601 -3 37 C-4 38 -4 38 -5.85766602 38.11352539 C-7.04380493 38.10567017 -7.04380493 38.10567017 -8.25390625 38.09765625 C-9.10791016 38.09443359 -9.96191406 38.09121094 -10.84179688 38.08789062 C-11.73962891 38.07951172 -12.63746094 38.07113281 -13.5625 38.0625 C-14.46419922 38.05798828 -15.36589844 38.05347656 -16.29492188 38.04882812 C-18.53001314 38.03700225 -20.76497437 38.0205222 -23 38 C-23.33 37.34 -23.66 36.68 -24 36 C-23.896875 36.86625 -23.79375 37.7325 -23.6875 38.625 C-24.11045847 43.19295145 -25.68526838 44.90144653 -29 48 C-32.29640796 49.09880265 -34.24691861 49.16137458 -37.625 48.4375 C-40.94707175 46.42677236 -42.293301 44.47904028 -44 41 C-44.16517654 36.2924687 -43.52575436 34.58834417 -40.375 31.0625 C-36.53317357 28.71471718 -34.41978657 28.55802134 -30 29 C-31.32 28.67 -32.64 28.34 -34 28 C-33.67 21.4 -33.34 14.8 -33 8 C-24 8 -24 8 -19.5 11 C-18.21609375 11.8353125 -18.21609375 11.8353125 -16.90625 12.6875 C-15.96265625 13.3371875 -15.96265625 13.3371875 -15 14 C-14.97873047 13.11248047 -14.97873047 13.11248047 -14.95703125 12.20703125 C-14.70470251 8.02655783 -14.32935381 5.50432302 -12 1.9375 C-7.96181419 -0.670495 -4.68820555 -0.97269311 0 0 Z M-18 16 C-17 18 -17 18 -17 18 Z " fill="#474648" transform="translate(97,26)"/>
<path d="M0 0 C0 2.97 0 5.94 0 9 C-2.97 9.99 -5.94 10.98 -9 12 C-8.97381592 12.81678223 -8.94763184 13.63356445 -8.9206543 14.47509766 C-8.81643787 18.19153454 -8.75159201 21.90766361 -8.6875 25.625 C-8.64560547 26.91019531 -8.60371094 28.19539063 -8.56054688 29.51953125 C-8.42243304 40.18191964 -8.42243304 40.18191964 -11.51953125 43.8984375 C-12.33808594 44.59195313 -13.15664063 45.28546875 -14 46 C-13.360625 46.309375 -12.72125 46.61875 -12.0625 46.9375 C-10 48 -10 48 -9 49 C-8.93672662 51.12277469 -8.94078335 53.24761546 -8.97265625 55.37109375 C-8.99102539 57.31532227 -8.99102539 57.31532227 -9.00976562 59.29882812 C-9.03460243 61.37061142 -9.06257654 63.44225192 -9.09594727 65.51391602 C-9.12609742 67.50786219 -9.14331584 69.50199075 -9.16015625 71.49609375 C-9.18541382 73.29324829 -9.18541382 73.29324829 -9.21118164 75.12670898 C-9.30497981 78.13060242 -9.30497981 78.13060242 -7 80 C-4.67724823 80.40047444 -2.34260643 80.7397104 0 81 C0 83.97 0 86.94 0 90 C-7.38114092 90.3884811 -11.76089627 89.15940249 -18 85 C-18 84.34 -18 83.68 -18 83 C-18.66 83 -19.32 83 -20 83 C-21.05773363 79.62539778 -21.00452503 76.76104184 -20.7734375 73.24609375 C-20.7115625 72.14458984 -20.6496875 71.04308594 -20.5859375 69.90820312 C-20.44504647 67.59002381 -20.29657888 65.27229283 -20.140625 62.95507812 C-20.08132812 61.85486328 -20.02203125 60.75464844 -19.9609375 59.62109375 C-19.89696777 58.6148999 -19.83299805 57.60870605 -19.76708984 56.57202148 C-19.77478426 53.96490075 -19.77478426 53.96490075 -21.37475586 52.18066406 C-23.36855438 50.73226243 -24.74562388 50.51265378 -27.1875 50.3125 C-28.445625 50.209375 -29.70375 50.10625 -31 50 C-31 46.7 -31 43.4 -31 40 C-30.28972656 39.87882812 -29.57945313 39.75765625 -28.84765625 39.6328125 C-27.46900391 39.38144531 -27.46900391 39.38144531 -26.0625 39.125 C-24.68771484 38.88136719 -24.68771484 38.88136719 -23.28515625 38.6328125 C-22.53105469 38.42398438 -21.77695312 38.21515625 -21 38 C-19.66199002 35.32398004 -20.0299964 33.49488435 -20.2265625 30.51171875 C-20.2884375 29.41279297 -20.3503125 28.31386719 -20.4140625 27.18164062 C-20.55401193 24.86340428 -20.70236922 22.5456593 -20.859375 20.22851562 C-20.91867188 19.12572266 -20.97796875 18.02292969 -21.0390625 16.88671875 C-21.10303223 15.87826904 -21.16700195 14.86981934 -21.23291016 13.83081055 C-20.8459515 9.12768098 -18.55912852 6.58575369 -15.375 3.25 C-10.88135278 -0.34266532 -5.50656002 0 0 0 Z " fill="#91D507" transform="translate(32,19)"/>
<path d="M0 0 C12.87381989 0.23253205 12.87381989 0.23253205 17.7265625 4.36328125 C21.26945097 8.91687104 21.20293423 14.3671117 20.625 19.875 C20.51929687 20.69871094 20.41359375 21.52242187 20.3046875 22.37109375 C19.9727073 25.23548701 19.81836477 28.05478549 19.75 30.9375 C19.72421875 31.83339844 19.6984375 32.72929688 19.671875 33.65234375 C19.81869761 36.04159861 19.81869761 36.04159861 21.28515625 37.7734375 C23.96520122 39.69037172 26.78438303 39.69663991 30 40 C30 43.3 30 46.6 30 50 C27.68880208 50.45572917 25.37760417 50.91145833 23.06640625 51.3671875 C22.38449219 51.57601562 21.70257813 51.78484375 21 52 C18.2492163 57.5015674 19.93326068 65.86683585 20.625 71.8125 C21.05823277 76.37457233 21.03078097 79.76920631 19 84 C14.21954351 88.71901104 9.80252022 89.95405705 3.1875 90.0625 C2.135625 90.041875 1.08375 90.02125 0 90 C0 87.36 0 84.72 0 82 C3.465 81.505 3.465 81.505 7 81 C7 80.34 7 79.68 7 79 C7.99 78.505 7.99 78.505 9 78 C9.02737829 75.52074346 9.04849704 73.04184697 9.0625 70.5625 C9.06725342 69.8298291 9.07200684 69.0971582 9.0769043 68.34228516 C9.07905963 64.44803783 8.92305925 60.73081441 8.3125 56.875 C7.95937854 52.49629389 8.54439454 50.59570799 11 47 C11.99 46.34 12.98 45.68 14 45 C13.38125 44.608125 12.7625 44.21625 12.125 43.8125 C9.58136215 41.64292654 8.89448665 40.20524383 8 37 C7.83340498 34.27894794 7.72337777 31.92562054 8.5078125 29.30078125 C9.22204616 25.9620223 9.10422768 22.64599085 9.0625 19.25 C9.05798828 18.55261719 9.05347656 17.85523437 9.04882812 17.13671875 C9.0371002 15.42444197 9.01916653 13.71220967 9 12 C7.68 11.34 6.36 10.68 5 10 C5 9.01 5 8.02 5 7 C3.35 7 1.7 7 0 7 C0 4.69 0 2.38 0 0 Z " fill="#90D407" transform="translate(97,19)"/>
<path d="M0 0 C0.89203125 0.01804688 1.7840625 0.03609375 2.703125 0.0546875 C3.71632813 0.08949219 3.71632813 0.08949219 4.75 0.125 C4.80392397 2.89609307 4.84363455 5.66613818 4.875 8.4375 C4.89175781 9.22318359 4.90851563 10.00886719 4.92578125 10.81835938 C4.93544922 11.9543457 4.93544922 11.9543457 4.9453125 13.11328125 C4.96102295 14.15802612 4.96102295 14.15802612 4.97705078 15.22387695 C4.75 17.125 4.75 17.125 2.75 20.125 C1.80125 20.33125 0.8525 20.5375 -0.125 20.75 C-3.80516388 22.36927211 -4.06761894 23.19027187 -5.625 26.75 C-6.18774615 28.2003295 -6.73634978 29.65656466 -7.25 31.125 C-10.20839355 31.15189449 -13.16654427 31.17178741 -16.125 31.1875 C-16.96675781 31.19587891 -17.80851562 31.20425781 -18.67578125 31.21289062 C-19.48144531 31.21611328 -20.28710938 31.21933594 -21.1171875 31.22265625 C-22.23262939 31.23051147 -22.23262939 31.23051147 -23.37060547 31.23852539 C-25.25 31.125 -25.25 31.125 -27.25 30.125 C-27.75338016 21.90312398 -24.97485908 16.37544357 -20.0625 10.05078125 C-16.92624051 6.71850554 -13.20461812 4.38272743 -9.25 2.125 C-8.60804687 1.7434375 -7.96609375 1.361875 -7.3046875 0.96875 C-4.74951063 -0.08052415 -2.7516374 -0.07241151 0 0 Z " fill="#4F5C32" transform="translate(59.25,33.875)"/>
<path d="M0 0 C0.33 0 0.66 0 1 0 C0.96600338 8.63514039 -1.07775652 15.81836607 -6 23 C-8.19921875 24.33984375 -8.19921875 24.33984375 -10 25 C-10 25.66 -10 26.32 -10 27 C-11.65 27.33 -13.3 27.66 -15 28 C-16.12837409 26.41906946 -17.25256518 24.83515284 -18.375 23.25 C-19.00148438 22.36828125 -19.62796875 21.4865625 -20.2734375 20.578125 C-24.10402879 14.85823755 -24.10402879 14.85823755 -23.75 11.9375 C-23 10 -23 10 -21 7 C-20.61500109 5.34450469 -20.27206865 3.6777567 -20 2 C-19.42967041 1.97494385 -18.85934082 1.9498877 -18.27172852 1.92407227 C-15.70173843 1.80843451 -13.13214473 1.68556376 -10.5625 1.5625 C-9.66466797 1.52318359 -8.76683594 1.48386719 -7.84179688 1.44335938 C-6.98779297 1.40146484 -6.13378906 1.35957031 -5.25390625 1.31640625 C-4.46314697 1.27974854 -3.6723877 1.24309082 -2.85766602 1.20532227 C-0.98598559 1.19436743 -0.98598559 1.19436743 0 0 Z " fill="#6FA33E" transform="translate(94,62)"/>
<path d="M0 0 C2.37957628 3.08760971 4.52519756 6.2787664 6.625 9.5625 C7.23601562 10.51253906 7.84703125 11.46257812 8.4765625 12.44140625 C10 15 10 15 11 18 C2.60577353 22.48993509 -6.48583037 23.47044523 -15.75 21 C-16.4925 20.67 -17.235 20.34 -18 20 C-17.4253379 15.21357393 -16.01754357 11.46211213 -13.9375 7.125 C-13.38964844 5.97257812 -12.84179688 4.82015625 -12.27734375 3.6328125 C-11.85582031 2.76398438 -11.43429688 1.89515625 -11 1 C-8.02148438 1.04882812 -8.02148438 1.04882812 -5.04296875 1.09765625 C-2.79694539 1.08263217 -2.79694539 1.08263217 0 0 Z " fill="#96D610" transform="translate(69,74)"/>
<path d="M0 0 C0.89203125 0.01804688 1.7840625 0.03609375 2.703125 0.0546875 C3.71632813 0.08949219 3.71632813 0.08949219 4.75 0.125 C4.80392397 2.89609307 4.84363455 5.66613818 4.875 8.4375 C4.89175781 9.22318359 4.90851563 10.00886719 4.92578125 10.81835938 C4.93222656 11.57568359 4.93867187 12.33300781 4.9453125 13.11328125 C4.95578613 13.80977783 4.96625977 14.50627441 4.97705078 15.22387695 C4.75 17.125 4.75 17.125 2.75 20.125 C0.13632485 21.62711216 -2.23311699 22.28748921 -5.25 22.125 C-8.13375901 20.23134962 -10.28290415 17.95270029 -12.25 15.125 C-12.25 14.465 -12.25 13.805 -12.25 13.125 C-12.86875 12.856875 -13.4875 12.58875 -14.125 12.3125 C-16.25 11.125 -16.25 11.125 -18.25 8.125 C-16.83531689 7.16374097 -15.4181636 6.20611675 -14 5.25 C-13.21109375 4.71632813 -12.4221875 4.18265625 -11.609375 3.6328125 C-7.48399808 0.99639612 -4.96712554 -0.13071383 0 0 Z " fill="#70A63C" transform="translate(59.25,33.875)"/>
<path d="M0 0 C3.13353707 1.23820034 3.78862681 3.60595659 5.13671875 6.54003906 C6.21336664 9.69188392 6.22626488 12.4577995 5.890625 15.74707031 C4.890625 16.74707031 4.890625 16.74707031 3.03295898 16.8605957 C2.24219971 16.85535889 1.45144043 16.85012207 0.63671875 16.84472656 C-0.21728516 16.84150391 -1.07128906 16.83828125 -1.95117188 16.83496094 C-2.84900391 16.82658203 -3.74683594 16.81820312 -4.671875 16.80957031 C-5.57357422 16.80505859 -6.47527344 16.80054687 -7.40429688 16.79589844 C-9.63938814 16.78407256 -11.87434937 16.76759251 -14.109375 16.74707031 C-14.55316508 14.15186312 -14.56080138 12.40841412 -13.04882812 10.19335938 C-11.54723056 8.51152891 -9.9816086 6.93771437 -8.359375 5.37207031 C-7.82054688 4.81390625 -7.28171875 4.25574219 -6.7265625 3.68066406 C-2.67566518 -0.32083207 -2.67566518 -0.32083207 0 0 Z " fill="#505C33" transform="translate(88.109375,47.2529296875)"/>
<path d="M0 0 C9 0 9 0 13 2.5 C13.763125 2.9640625 14.52625 3.428125 15.3125 3.90625 C15.869375 4.2671875 16.42625 4.628125 17 5 C17 5.99 17 6.98 17 8 C16.34 8 15.68 8 15 8 C15 8.66 15 9.32 15 10 C14.34 10 13.68 10 13 10 C12.67 10.99 12.34 11.98 12 13 C10.328125 14.82421875 10.328125 14.82421875 8.25 16.6875 C7.57453125 17.31011719 6.8990625 17.93273437 6.203125 18.57421875 C4 20 4 20 -1 20 C-0.67 13.4 -0.34 6.8 0 0 Z " fill="#56633A" transform="translate(64,34)"/>
<path d="M0 0 C6.6 0.33 13.2 0.66 20 1 C20.66 2.98 21.32 4.96 22 7 C21.05640625 7.45439453 21.05640625 7.45439453 20.09375 7.91796875 C14.51090353 10.65053668 9.19630294 13.58901902 4 17 C-0.59461653 11.40655378 0 7.55933655 0 0 Z " fill="#96D70D" transform="translate(32,64)"/>
<path d="M0 0 C-0.70062483 4.56736441 -2.31270207 8.5699505 -4.0625 12.8125 C-4.34416016 13.50537109 -4.62582031 14.19824219 -4.91601562 14.91210938 C-5.60674973 16.60967624 -6.30283728 18.30506312 -7 20 C-10.10021321 18.47639094 -13.05162229 16.80178638 -16 15 C-14.38669686 10.99060757 -11.57540302 8.24326219 -8.5625 5.25 C-8.07201172 4.74339844 -7.58152344 4.23679687 -7.07617188 3.71484375 C-3.36633465 0 -3.36633465 0 0 0 Z " fill="#535F35" transform="translate(58,74)"/>
<path d="M0 0 C4.01868507 1.33956169 5.12247846 3.90964739 7.1875 7.375 C7.55552734 7.96539062 7.92355469 8.55578125 8.30273438 9.1640625 C10.01741309 11.98898773 11 13.63751052 11 17 C7.18063472 15.44396229 4.73955562 13.04395069 2 10 C2 9.34 2 8.68 2 8 C1.38125 7.731875 0.7625 7.46375 0.125 7.1875 C-2 6 -2 6 -4 3 C-2.1875 1.4375 -2.1875 1.4375 0 0 Z " fill="#94D111" transform="translate(45,39)"/>
<path d="M0 0 C6.6 0.33 13.2 0.66 20 1 C20.66 2.98 21.32 4.96 22 7 C20.68 7.33 19.36 7.66 18 8 C18 6.35 18 4.7 18 3 C12.72 3 7.44 3 2 3 C2 3.99 2 4.98 2 6 C1.34 6 0.68 6 0 6 C0 4.02 0 2.04 0 0 Z " fill="#8FC427" transform="translate(32,64)"/>
<path d="M0 0 C3.44428265 1.44781793 5.36130962 3.27694609 7.75 6.125 C8.36359375 6.84945312 8.9771875 7.57390625 9.609375 8.3203125 C10.29773438 9.15175781 10.29773438 9.15175781 11 10 C10.34 10.66 9.68 11.32 9 12 C7.046875 11.8671875 7.046875 11.8671875 5 11 C3.515625 9.2578125 3.515625 9.2578125 2.25 7.125 C1.60804687 6.07699219 1.60804687 6.07699219 0.953125 5.0078125 C0 3 0 3 0 0 Z " fill="#566239" transform="translate(73,78)"/>
<path d="M0 0 C2.18847656 0.34204102 2.18847656 0.34204102 4 1 C4 1.66 4 2.32 4 3 C2.34284104 4.01567807 0.67266041 5.01005812 -1 6 C-4.04274034 8.27951115 -7.02437701 10.63376385 -10 13 C-10.66 12.67 -11.32 12.34 -12 12 C-10.09797311 9.96339574 -8.18061509 7.94668664 -6.25 5.9375 C-5.71117188 5.35677734 -5.17234375 4.77605469 -4.6171875 4.17773438 C-3.015625 2.52734375 -3.015625 2.52734375 0 0 Z " fill="#7E8A67" transform="translate(86,47)"/>
<path d="M0 0 C0.556875 0.226875 1.11375 0.45375 1.6875 0.6875 C0.5428125 1.3371875 0.5428125 1.3371875 -0.625 2 C-2.89343768 3.42436785 -4.5324723 4.72010097 -6.3125 6.6875 C-6.6425 5.3675 -6.9725 4.0475 -7.3125 2.6875 C-2.88173077 -0.38942308 -2.88173077 -0.38942308 0 0 Z " fill="#78AD46" transform="translate(54.3125,35.3125)"/>
<path d="M0 0 C0.75 1.625 0.75 1.625 1 4 C-0.9375 7.25 -0.9375 7.25 -3 10 C-3.75 8.375 -3.75 8.375 -4 6 C-2.0625 2.75 -2.0625 2.75 0 0 Z " fill="#59633C" transform="translate(37,47)"/>
<path d="M0 0 C1.98 0 3.96 0 6 0 C6 0.66 6 1.32 6 2 C4.02 2 2.04 2 0 2 C0 1.34 0 0.68 0 0 Z " fill="#8DD504" transform="translate(97,95)"/>
</svg>
